<?xml version="1.0" encoding="utf-8"?>
<!-- Generator: Adobe Illustrator 25.2.0, SVG Export Plug-In . SVG Version: 6.00 Build 0)  -->
<svg version="1.1" id="Layer_1" xmlns="http://www.w3.org/2000/svg" xmlns:xlink="http://www.w3.org/1999/xlink" x="0px" y="0px"
	 viewBox="0 0 160 160" style="enable-background:new 0 0 160 160;" xml:space="preserve">
<style type="text/css">
	.st0{fill:#092341;}
	.st1{fill:#FFFFFF;}
</style>
<g id="Layer_1-2">
	<circle class="st0" cx="80" cy="80" r="79"/>
</g>
<g>
	<path class="st1" d="M83.9,47.1c-1-1-2.6-1-3.5,0L69.5,57.9c-0.4,0.4-0.7,1-0.8,1.6l-2.2,11.8c-0.3,1.6-1.1,3.1-2.3,4.3L32,107.8
		c-1,1-1,2.6,0,3.5l15.6,15.6c0.5,0.5,1.1,0.7,1.8,0.7s1.3-0.3,1.8-0.7l32.2-32.2c1.2-1.2,2.7-2,4.3-2.3l12.1-2.2
		c0.6-0.1,0.9-0.5,1.4-1c0.1-0.1,10.8-10.7,10.8-10.7c1-1,1-2.6,0-3.5L83.9,47.1z M48.5,122.2l-11.8-11.8c-0.5-0.5-0.5-1.2,0-1.7
		L67,78.4c0.4-0.4,1.2-0.4,1.6,0l11.9,11.9c0.4,0.4,0.4,1.2,0,1.6l-30.3,30.3C49.7,122.7,49,122.7,48.5,122.2z M84.1,88.2L70.7,74.8
		c-0.4-0.4-0.6-1.1-0.5-1.7l1.6-8.8c0.1-0.3,0.5-0.4,0.7-0.2l22.3,22.3c0.2,0.2,0.1,0.6-0.2,0.7l-8.8,1.6
		C85.2,88.9,84.5,88.7,84.1,88.2z M99.1,84.5L74.4,59.8c-0.3-0.3-0.3-0.9,0-1.2l7-7c0.3-0.3,0.9-0.3,1.2,0l24.6,24.6
		c0.3,0.3,0.3,0.9,0,1.2l-7,7C100,84.8,99.4,84.8,99.1,84.5z"/>
	<path class="st1" d="M106.5,55.4L118.9,43c0.8-0.8,0.8-2,0-2.8l0,0c-0.8-0.8-2-0.8-2.8,0l-12.4,12.4c-0.8,0.8-0.8,2,0,2.8l0,0
		C104.4,56.2,105.7,56.2,106.5,55.4z"/>
	<path class="st1" d="M127.6,51.2l-15.2,9.4c-0.9,0.6-1.2,1.8-0.7,2.8l0,0c0.6,0.9,1.8,1.2,2.8,0.7l15.2-9.4
		c0.9-0.6,1.2-1.8,0.7-2.8l0,0C129.8,51,128.6,50.7,127.6,51.2z"/>
	<path class="st1" d="M107.1,28.6L107.1,28.6c-0.9-0.6-2.2-0.3-2.8,0.7L95,44.4c-0.6,0.9-0.3,2.2,0.7,2.8l0,0
		c0.9,0.6,2.2,0.3,2.8-0.7l9.4-15.2C108.3,30.4,108.1,29.2,107.1,28.6z"/>
</g>
</svg>
