<?xml version="1.0" encoding="utf-8"?>
<!-- Generator: Adobe Illustrator 25.2.0, SVG Export Plug-In . SVG Version: 6.00 Build 0)  -->
<svg version="1.1" id="Layer_1" xmlns="http://www.w3.org/2000/svg" xmlns:xlink="http://www.w3.org/1999/xlink" x="0px" y="0px"
	 viewBox="0 0 160 160" style="enable-background:new 0 0 160 160;" xml:space="preserve">
<style type="text/css">
	.st0{fill:#092341;}
	.st1{fill:#FFFFFF;}
</style>
<g id="Layer_1-2">
	<circle class="st0" cx="80" cy="80" r="79"/>
</g>
<path class="st1" d="M56.5,80h-4c0-15.1,12.3-27.5,27.5-27.5v4C67.1,56.5,56.5,67.1,56.5,80z"/>
<path class="st1" d="M136.2,135.8L109,108.7c-0.3-0.3-0.3-0.9,0-1.2c7.6-8,11.9-19.1,10.8-31.3c-1.7-19.1-17.1-34.4-36.2-36.1
	c-24.9-2.2-45.7,18.6-43.5,43.5c1.7,18.8,16.7,34.1,35.5,36.1c11.1,1.2,21.3-2.2,29.2-8.5c0.3-0.3,0.8-0.3,1.1,0.1l27.4,27.1
	L136.2,135.8z M44,80c0-19.9,16.1-36,36-36s36,16.1,36,36s-16.1,36-36,36S44,99.9,44,80z"/>
</svg>
