<?xml version="1.0" encoding="utf-8"?>
<!-- Generator: Adobe Illustrator 25.2.0, SVG Export Plug-In . SVG Version: 6.00 Build 0)  -->
<svg version="1.1" id="Layer_1" xmlns="http://www.w3.org/2000/svg" xmlns:xlink="http://www.w3.org/1999/xlink" x="0px" y="0px"
	 viewBox="0 0 240 160" style="enable-background:new 0 0 240 160;" xml:space="preserve">
<style type="text/css">
	.st0{fill:#FFFFFF;}
</style>
<g>
	<path class="st0" d="M159.4,57.8c2.9-0.2,5.2-2.7,5-5.7c-0.2-2.9-2.7-5.2-5.7-5c-2.9,0.2-5.2,2.7-5,5.7
		C153.9,55.8,156.5,58,159.4,57.8z"/>
	<path class="st0" d="M22.1,160l0.2-10.3c3.2,2.1,9,5.8,17.3,10.3h17c-0.3-0.2-0.7-0.3-1-0.5c1-1.3,2-2.6,3-3.9
		c13.6-16.9,28.1-28.5,35.5-33.5l25.4,18.2C111.7,146,101,152.8,87,160h16.3c8.7-5,15.8-9.7,21.6-13.8c1.7,3.1,4.3,7.8,7.1,13.8h8.6
		c-3.9-8.5-7.3-14.9-9.5-18.6c8.7-6.9,13-11.7,14.2-13.2c5.6,3,11.4,7.3,17.4,13.8c2.7,2.9,5.1,5.8,7.3,8.9
		c-0.3,1.5-0.9,4.6-1.7,9.1h26.5c4.8-4.8,11.4-11.4,17.9-18.3c24.2-25.4,26.2-30.9,26.2-34c0-1.4-0.5-3.9-3.9-5.6
		c-6.4-3.2-22.4-2.1-31.4-1.2c-3.9,0.4-20.7,3.2-28.4,6.3c-7.7,3.1-19.6,9.6-28.3,13.1c-4.1-2-8.1-3.3-12-4.2
		c-0.1-0.1-0.3-0.2-0.4-0.3c-4-2.5-8-7.3-7.9-11.4c0.1-3.2,2.8-6.2,7.9-8.9c32.2-13.5,49-42.8,57.7-66.4c0,0,0,0,0,0
		c0-0.1,0-0.2,0.1-0.3c0-0.1,0-0.2,0.1-0.3c0-0.1,0-0.2,0.1-0.3c0,0,0,0,0,0c0-0.1,0-0.1,0-0.2c0-0.1,0-0.2,0-0.3c0-0.1,0-0.2,0-0.3
		c0-0.1,0-0.1,0-0.2c0-0.1,0-0.1,0-0.2c0-0.1,0-0.1-0.1-0.2c0-0.1,0-0.1,0-0.2c0-0.1,0-0.1-0.1-0.2c0-0.2-0.1-0.3-0.2-0.4
		c0,0,0-0.1-0.1-0.1c0,0,0-0.1-0.1-0.1c-0.1-0.2-0.2-0.3-0.3-0.5l0,0c-0.8-1.1-2-1.8-3.4-1.8c-39.6-4.8-69.8,2.5-89.7,21.8
		c-25.5,24.7-25.4,60.6-25,68.9c-7,0.7-15,2-22.7,4.5c-7.4-3-17.1-11.6-23-18.1c-5.7-6.2-7.1-7.7-9.8-7.1c-1.4,0.3-2.5,1.3-3,2.6
		c-0.3,0.7-1.9,2.9-3.1,4.7c-3.3,4.8-7.8,11.3-9.6,16.2c-2.4,6.3-0.8,31,0.1,43H22.1z M180,113.4c4.8-2.3,11.9-3.6,25.9-4.9
		c13.7-1.3,21.7-0.7,24.8,0.2c-3.3,6-20.2,25.2-45.9,50.3c-4.4-7.6-9.6-15.2-16.3-22.3c-4.4-4.8-8.7-8.5-13-11.5
		C164,121.7,175.2,115.7,180,113.4z M130.9,123.2c0.5,0.2,0.9,0.3,1.4,0.3c1.8,0.4,3.7,0.9,5.6,1.5c-2,2.1-5.7,5.7-11.7,10.4
		l-19-13.5c2.3,0,5,0.1,8.1,0.1C120.5,122,125.7,122.3,130.9,123.2z M121.4,114.4c-2-0.1-4.1-0.1-6.1-0.2c-0.5,0-0.9,0-1.4,0
		c0.1-2.6,0.4-7.2,1.5-13.1c1.2-0.2,2.3-0.4,3.5-0.7c-0.4,1.3-0.6,2.6-0.6,3.7C118.2,107.8,119.5,111.3,121.4,114.4z M181.7,33.1
		c-13.1,31.3-33.6,50.9-60.8,58.2c-1.1,0.3-2.2,0.6-3.3,0.8c1.2-4.4,2.9-9.2,5.1-14C133.8,54.2,153.6,39,181.7,33.1z M104.5,51.2
		c13.6-13.1,32.7-20.1,57.1-20.8c-26,10.6-39.6,29-46.7,44.4c-3,6.6-5.1,13-6.5,18.8c-11.2,1.3-20.4,0.2-24.9-0.5
		C85.8,80.1,91.4,63.8,104.5,51.2z M82.3,101.4c3.4,0.6,8.8,1.2,15.5,1.2c2.8,0,5.8-0.1,8.9-0.4c-0.8,5.2-1.1,9.3-1.1,11.8
		c-7.8-0.2-10.9-0.5-10.9-0.5l-0.1,0c-0.6,0-5.5-0.3-12.6,0C81.8,111.4,81.8,107,82.3,101.4z M82,121.4
		c-7.5,5.9-18.3,15.5-29.2,29.1c-1.4,1.8-2.9,3.6-4.2,5.4C38,150.4,30.7,145.8,27,143.4c3.8-4.1,7.6-7.6,11.5-10.3
		C51,124.4,69.8,122,82,121.4z M9.5,119.8c1.5-4,5.9-10.4,8.7-14.5c0.5-0.7,0.9-1.4,1.3-1.9c0.8,0.8,1.6,1.8,2.4,2.6
		c5.1,5.6,12.2,12.1,19.2,16.6c-2.5,1.2-5,2.6-7.2,4.2c-8.4,5.9-16.6,14.9-24.2,26.3C8.7,137.2,8.3,123,9.5,119.8z"/>
</g>
</svg>
